<?xml version="1.0" encoding="UTF-8"?>
<svg version="1.1" xmlns="http://www.w3.org/2000/svg" width="500" height="500">
<path d="M0 0 C1.04097546 -0.00382555 2.08195093 -0.00765109 3.1544711 -0.01159257 C6.60622276 -0.02182508 10.05780503 -0.01794908 13.50956726 -0.01396179 C15.99928439 -0.01831367 18.48900017 -0.02349841 20.97871399 -0.02944946 C27.01804242 -0.0414159 33.0573055 -0.04399704 39.09663979 -0.0416492 C44.01041733 -0.03985963 48.92418144 -0.04162932 53.83795738 -0.04587364 C54.53971778 -0.04646883 55.24147817 -0.04706402 55.96450403 -0.04767724 C57.39055465 -0.04888911 58.81660528 -0.05010325 60.2426559 -0.05131962 C73.5899759 -0.0621741 86.93727058 -0.06004266 100.284592 -0.05393478 C112.4663632 -0.04876805 124.64805438 -0.06001834 136.82980976 -0.07903299 C149.37001726 -0.09845549 161.91018697 -0.10665965 174.45040959 -0.10290974 C181.47795604 -0.1010043 188.50543442 -0.10342072 195.53296852 -0.11762428 C202.14456493 -0.13085314 208.75602841 -0.12821844 215.36763382 -0.11521339 C217.78501757 -0.11285726 220.20241271 -0.1155475 222.6197834 -0.12383652 C247.11599643 -0.20173325 268.47517314 2.66577493 287.51225281 19.50288391 C294.2075216 26.32447853 298.21940347 34.57673284 301.97709656 43.26069641 C302.24812195 43.87138977 302.51914734 44.48208313 302.79838562 45.11128235 C308.33639578 58.53697155 307.27455506 73.24679283 307.2676239 87.47016907 C307.27361495 89.92546288 307.28042181 92.38075482 307.28797913 94.83604431 C307.30376315 100.79215327 307.31008501 106.74819978 307.31120388 112.70432384 C307.31215828 117.55228679 307.31628801 122.4002368 307.32260513 127.24819565 C307.3401961 141.03117966 307.34944746 154.81413267 307.34794419 168.59712799 C307.34786427 169.33833701 307.34778436 170.07954604 307.34770203 170.84321594 C307.34762027 171.58534326 307.3475385 172.32747058 307.34745426 173.0920866 C307.34664214 185.10695669 307.36576677 197.1217012 307.39397876 209.136535 C307.42280214 221.51064651 307.43651385 233.88469695 307.43479121 246.25884283 C307.43413052 253.19093792 307.43948045 260.12290137 307.46114731 267.05496597 C307.48141455 273.5804117 307.48058948 280.10565232 307.46611404 286.63111496 C307.46403651 289.01337848 307.46866308 291.39565974 307.48083496 293.77789307 C307.55851232 310.04634802 307.33300353 327.12148606 299.22709656 341.76069641 C298.88275574 342.41102844 298.53841492 343.06136047 298.18363953 343.73139954 C289.20149992 360.18435922 276.23612084 368.61478217 259.27397156 375.33100891 C250.57208418 377.78485867 241.87086914 378.55699053 232.86480713 378.52139282 C231.28897658 378.52713114 231.28897658 378.52713114 229.68131107 378.53298539 C226.19725289 378.54321928 222.71336248 378.53934165 219.22929382 378.53535461 C216.71662749 378.53970637 214.20396249 378.54489106 211.69129944 378.55084229 C205.59649677 378.56280881 199.5017549 378.56538992 193.40694279 378.56304202 C188.44928845 378.56125279 183.49164743 378.56302142 178.53399467 378.56726646 C177.82610611 378.56786165 177.11821755 378.56845684 176.38887782 378.56907007 C174.95042173 378.57028192 173.51196565 378.57149606 172.07350957 378.57271244 C158.61084213 378.58356653 145.14819979 378.58143542 131.68553095 378.5753276 C119.39247798 378.57015849 107.09950425 378.58141752 94.80646694 378.60042582 C82.15552796 378.61983622 69.50462641 378.62805473 56.85367244 378.62430257 C49.76247385 378.62239561 42.6713427 378.6248287 35.58015633 378.63901711 C28.91109473 378.65222701 22.24221694 378.64962763 15.57314682 378.63660622 C13.13234719 378.63424647 10.69153633 378.63695341 8.25074959 378.64522934 C-15.32856805 378.71938606 -15.32856805 378.71938606 -26.02290344 375.26069641 C-27.86755188 374.69608704 -27.86755188 374.69608704 -29.74946594 374.12007141 C-48.36400211 366.99537024 -61.51411551 354.9494215 -69.66743469 336.81929016 C-71.84439804 331.10397718 -72.96855261 325.26822059 -74.02290344 319.26069641 C-74.19253947 318.5083777 -74.3621755 317.75605898 -74.53695202 316.98094273 C-75.09745012 313.84340093 -75.24003407 310.82941706 -75.34109497 307.64300537 C-75.36207209 306.98779297 -75.38304922 306.33258058 -75.40466201 305.65751326 C-75.47207622 303.45562747 -75.53122498 301.25363789 -75.58857727 299.0514679 C-75.60975101 298.27223933 -75.63092475 297.49301077 -75.65274012 296.69016922 C-76.22214359 275.13844705 -76.09250631 253.58461097 -75.98823142 232.02772832 C-75.96635672 227.38456258 -75.94790216 222.74138532 -75.92929965 218.09820551 C-75.8852709 207.15063145 -75.83506114 196.203098 -75.78096008 185.25556946 C-75.72550964 174.00910084 -75.68163801 162.76262676 -75.64310902 151.51608855 C-75.60931834 141.7852681 -75.56800324 132.05449873 -75.52078372 122.32373422 C-75.49283027 116.54301813 -75.46773626 110.76232695 -75.45012474 104.98156929 C-75.43333766 99.5663263 -75.40711975 94.15120782 -75.37381363 88.73604202 C-75.36320936 86.75965436 -75.3558632 84.78324589 -75.35214806 82.80683327 C-75.30239941 58.83606955 -72.06929395 37.72410604 -54.75727844 19.92475891 C-51.37900997 16.6333602 -48.00670368 13.78057006 -44.02290344 11.26069641 C-43.33970032 10.82370422 -42.65649719 10.38671204 -41.95259094 9.93647766 C-29.15717794 2.30050538 -14.70795189 -0.05869669 0 0 Z M229.45756531 63.35444641 C200.40633169 64.34027448 168.55082446 71.09206157 142.97709656 85.26069641 C141.64692911 85.93365761 140.31472673 86.60269358 138.97709656 87.26069641 C138.97709656 87.92069641 138.97709656 88.58069641 138.97709656 89.26069641 C138.12760437 89.47596985 137.27811218 89.69124329 136.40287781 89.91304016 C132.22033871 91.55839477 129.48783583 93.86373248 126.16459656 96.82319641 C125.58000671 97.3304425 124.99541687 97.8376886 124.39311218 98.36030579 C121.62795919 100.74838926 121.62795919 100.74838926 118.97709656 103.26069641 C116.72709656 103.59272766 116.72709656 103.59272766 113.97709656 103.26069641 C111.47709656 101.39741516 111.47709656 101.39741516 108.97709656 98.94819641 C103.79133243 93.49033608 103.79133243 93.49033608 96.97709656 91.26069641 C96.97709656 90.60069641 96.97709656 89.94069641 96.97709656 89.26069641 C86.9353889 83.5761665 76.92392676 78.91840499 65.97709656 75.26069641 C65.32048035 75.03784973 64.66386414 74.81500305 63.98735046 74.58540344 C48.14808441 69.29787803 31.40463768 66.16464147 14.71928406 65.43647766 C11.97709656 65.26069641 11.97709656 65.26069641 9.74272156 64.76069641 C5.45940149 63.98631086 1.19638139 63.99494266 -3.14790344 63.94819641 C-4.05411438 63.9191925 -4.96032532 63.8901886 -5.89399719 63.86030579 C-6.76411438 63.85192688 -7.63423157 63.84354797 -8.53071594 63.83491516 C-9.32107239 63.82033264 -10.11142883 63.80575012 -10.92573547 63.79072571 C-13.12824293 64.09341686 -13.12824293 64.09341686 -14.63016701 65.81086731 C-16.53007554 69.15281422 -16.4383865 72.18738648 -16.40385437 75.92793274 C-16.40853434 76.70440312 -16.41321431 77.48087351 -16.4180361 78.2808733 C-16.43001061 80.88499804 -16.42051943 83.48859892 -16.41108704 86.09272766 C-16.41515165 87.9587281 -16.42049291 89.82472614 -16.42701721 91.6907196 C-16.44070971 96.76089742 -16.43538416 101.83089238 -16.42587996 106.90107346 C-16.41829339 112.20300038 -16.42532618 117.50491147 -16.43003845 122.80683899 C-16.43549893 131.71108313 -16.42829672 140.61525266 -16.41401672 149.51948547 C-16.39768967 159.81920126 -16.40297797 170.11873889 -16.41949594 180.41845036 C-16.43310248 189.2559032 -16.43503454 198.09330236 -16.42717993 206.93076229 C-16.42249884 212.2114752 -16.42189055 217.49210433 -16.4317894 222.77281189 C-16.44044466 227.73701456 -16.4344635 232.70098717 -16.41710663 237.66516495 C-16.41313408 239.48889916 -16.41428892 241.31265267 -16.42089462 243.13637924 C-16.42906995 245.62233574 -16.41883754 248.10755105 -16.40385437 250.59346008 C-16.41054654 251.31836041 -16.4172387 252.04326075 -16.42413366 252.79012775 C-16.38823294 255.85255099 -16.17432562 257.98250245 -14.69831276 260.69424438 C-10.99834613 264.15359021 -4.98807836 263.35002996 -0.17866516 263.49971008 C35.85491889 264.72803498 79.3874329 274.83142048 107.32524109 298.66841125 C110.45717203 301.30261404 112.80289484 303.14919854 116.97709656 303.26069641 C119.0259994 302.55142516 119.0259994 302.55142516 120.78959656 301.32319641 C121.84147156 300.64257141 122.89334656 299.96194641 123.97709656 299.26069641 C123.97709656 298.60069641 123.97709656 297.94069641 123.97709656 297.26069641 C124.81627625 296.87397766 124.81627625 296.87397766 125.67240906 296.47944641 C128.2570049 295.11267708 130.48342812 293.4756967 132.85209656 291.76069641 C145.77871216 283.06374547 161.1164618 276.82641931 175.97709656 272.26069641 C177.09471375 271.91651672 178.21233093 271.57233704 179.36381531 271.21772766 C198.2346179 265.98363683 218.20765576 263.89038716 237.74076843 263.58808899 C238.6682489 263.57028381 239.59572937 263.55247864 240.55131531 263.53413391 C241.36173279 263.528172 242.17215027 263.52221008 243.00712585 263.5160675 C245.21048363 263.43420024 245.21048363 263.43420024 246.97709656 261.26069641 C247.18115079 258.68465494 247.25954246 256.21521161 247.25125122 253.63742065 C247.2564879 252.84153579 247.26172458 252.04565093 247.26711994 251.22564834 C247.28218814 248.54400299 247.28282658 245.8625473 247.28349304 243.18086243 C247.29110989 241.26427383 247.29953656 239.34768831 247.30871582 237.43110657 C247.3307131 232.21424196 247.3394666 226.99743597 247.34454226 221.78053021 C247.34817932 218.52443506 247.35441592 215.26835542 247.36154366 212.01226616 C247.38605521 200.66204525 247.39909397 189.31187017 247.40263367 177.96162415 C247.40627145 167.36648575 247.43617993 156.77163661 247.47803825 146.17658669 C247.51267611 137.09206344 247.52818097 128.00763636 247.5288797 118.92304748 C247.52967467 113.49189785 247.5385139 108.06104267 247.56687737 102.62996101 C247.5929471 97.52371037 247.59532559 92.41800066 247.57922173 87.31171417 C247.57739842 85.4343314 247.58417683 83.55691831 247.60004044 81.67960167 C247.62033441 79.12273637 247.61004955 76.56779363 247.59182739 74.01095581 C247.61162734 72.88800758 247.61162734 72.88800758 247.63182729 71.74237353 C247.65038048 69.43212625 247.65038048 69.43212625 246.97709656 66.26069641 C241.79736068 61.83470387 235.83056077 63.18468849 229.45756531 63.35444641 Z M-35.02290344 91.26069641 C-36.21015877 94.82246239 -36.17425236 98.05606081 -36.17680359 101.76298523 C-36.18118584 102.53381207 -36.1855681 103.30463891 -36.19008315 104.09882414 C-36.20347083 106.68973064 -36.20964987 109.28060313 -36.21577454 111.87153625 C-36.22367536 113.72591302 -36.2319443 115.58028826 -36.24055481 117.43466187 C-36.26677133 123.53030428 -36.2820794 129.62595356 -36.29634094 135.72163391 C-36.30170027 137.81876759 -36.30707777 139.91590123 -36.3124733 142.01303482 C-36.33409907 150.73390037 -36.35283743 159.45476407 -36.36409569 168.17564964 C-36.38034683 180.68237944 -36.41355639 193.18879915 -36.47049654 205.69541204 C-36.50915446 214.48528693 -36.5287233 223.27507873 -36.53401625 232.06503642 C-36.53767462 237.31740264 -36.54974797 242.56943811 -36.58211899 247.82171249 C-36.61212755 252.76135028 -36.61853727 257.70045591 -36.60673523 262.64016533 C-36.60651391 264.45382734 -36.61486728 266.26751354 -36.63238907 268.08109093 C-36.65500217 270.55618539 -36.64682394 273.02933718 -36.63090515 275.50444031 C-36.64478724 276.22321897 -36.65866933 276.94199763 -36.67297208 277.68255746 C-36.61049459 281.621208 -36.13317057 283.13052882 -33.54740334 286.18296242 C-32.71431837 286.86861464 -31.88123341 287.55426685 -31.02290344 288.26069641 C-30.69290344 288.59069641 -30.36290344 288.92069641 -30.02290344 289.26069641 C-28.63484051 289.37252081 -27.24128884 289.41739654 -25.84883118 289.4342804 C-24.95957443 289.44777023 -24.07031769 289.46126007 -23.15411377 289.47515869 C-22.1814003 289.48559708 -21.20868683 289.49603546 -20.20649719 289.50679016 C-18.14073878 289.53979314 -16.07498367 289.57300345 -14.00923157 289.60639954 C-10.75804023 289.653342 -7.50685532 289.69762669 -4.25556946 289.73750305 C8.29852847 289.89906076 20.56462588 290.27378336 32.97709656 292.26069641 C33.8830658 292.40096252 34.78903503 292.54122864 35.72245789 292.68574524 C60.47223739 296.77032074 88.94742562 304.59960814 107.42094421 322.67329407 C110.26070855 325.39071245 111.97722019 326.26071702 115.89115906 326.91304016 C120.80208179 326.58463243 123.76981203 323.97232888 127.35209656 320.82319641 C128.56746844 319.80274266 129.7835801 318.78316916 131.00053406 317.76460266 C132.4739325 316.52516907 132.4739325 316.52516907 133.97709656 315.26069641 C134.63709656 314.93069641 135.29709656 314.60069641 135.97709656 314.26069641 C135.97709656 313.60069641 135.97709656 312.94069641 135.97709656 312.26069641 C136.831745 312.00030579 137.68639343 311.73991516 138.56694031 311.47163391 C142.10030143 310.21694669 145.22937909 308.64245145 148.53959656 306.88569641 C154.15996729 303.98011047 159.72816561 301.87528304 165.84428406 300.18257141 C168.24344316 299.47658444 170.47153507 298.69419471 172.78959656 297.78022766 C177.14625664 296.11813129 181.53810248 295.11653246 186.10209656 294.19819641 C187.33355408 293.94332458 187.33355408 293.94332458 188.58988953 293.68330383 C194.86184844 292.41367405 201.13302717 291.44004448 207.48490906 290.65522766 C209.91253505 290.52120666 209.91253505 290.52120666 210.97709656 289.26069641 C212.51153129 289.18829207 214.04931686 289.18536725 215.58525085 289.21064758 C217.05764473 289.23012703 217.05764473 289.23012703 218.55978394 289.25 C219.62948929 289.2677095 220.69919464 289.28541901 221.80131531 289.30366516 C224.04935326 289.3260635 226.29740078 289.34751779 228.54545593 289.36811829 C232.10292688 289.40516761 235.65991447 289.44811822 239.21708679 289.50752258 C242.64106725 289.56209086 246.06450804 289.59113907 249.48881531 289.61616516 C251.0781916 289.65183846 251.0781916 289.65183846 252.69967651 289.68823242 C258.74663711 289.70963365 262.44853338 289.44312136 266.97709656 285.26069641 C268.14572024 281.75482537 268.11884887 278.60829171 268.11080933 274.96168518 C268.11307488 274.21268723 268.11534044 273.46368928 268.11767465 272.69199443 C268.12401955 270.17484048 268.12318496 267.6577403 268.12236023 265.14057922 C268.12535147 263.3387088 268.12875392 261.53683902 268.13253784 259.73497009 C268.14138697 254.83400417 268.14371638 249.9330557 268.14435363 245.03208256 C268.14530238 240.94173966 268.1489804 236.85140085 268.15252572 232.76105952 C268.16067424 223.10924368 268.16310965 213.45743717 268.16239929 203.80561829 C268.16179882 193.84968376 268.17234369 183.89380347 268.18814296 173.93788266 C268.20122175 165.39170872 268.20658302 156.84555249 268.20594388 148.29936862 C268.20568894 143.19461332 268.20853811 138.08990617 268.21912193 132.98516083 C268.22880825 128.18188883 268.2288784 123.37871097 268.2216053 118.57543564 C268.22056003 116.81423429 268.22291893 115.05302706 268.22896576 113.29183578 C268.23669706 110.88366094 268.23203337 108.47581021 268.22433472 106.06764221 C268.23205006 105.02739486 268.23205006 105.02739486 268.23992127 103.9661324 C268.2074098 99.3494816 267.39702853 95.60475107 265.97709656 91.26069641 C262.68633659 91.63973849 262.68633659 91.63973849 259.97709656 93.26069641 C259.86703467 95.68878792 259.82213919 98.08905168 259.81887817 100.51815796 C259.81147121 101.67100136 259.81147121 101.67100136 259.80391461 102.84713453 C259.78846331 105.44209882 259.78015847 108.03703824 259.77177429 110.6320343 C259.76220175 112.48437726 259.75219205 114.336718 259.74177551 116.1890564 C259.7146527 121.23427672 259.69368321 126.27950647 259.67377353 131.32475972 C259.65195931 136.59121894 259.62454837 141.85764886 259.59771729 147.12408447 C259.54772848 157.10425476 259.50281269 167.08444125 259.45969492 177.06464332 C259.41037531 188.42359911 259.35543768 199.78252551 259.30001533 211.14145291 C259.18610033 234.51450668 259.07928213 257.88758862 258.97709656 281.26069641 C257.89600616 281.25382309 256.81491577 281.24694977 255.70106506 281.23986816 C251.62621023 281.2158129 247.55136143 281.20093601 243.47645569 281.18859863 C241.7247766 281.18206559 239.97310447 281.17316098 238.22145081 281.16168213 C224.22733977 281.07238356 210.79697059 281.89515749 196.97709656 284.26069641 C195.51880089 284.49140334 194.06046973 284.72188612 192.60209656 284.95210266 C176.32580963 287.64953883 161.0027969 292.52882471 145.97709656 299.26069641 C145.02061218 299.68221985 144.06412781 300.10374329 143.07865906 300.53804016 C136.45370641 303.64152744 130.8011308 307.87086694 124.97709656 312.26069641 C123.98709656 312.92069641 122.99709656 313.58069641 121.97709656 314.26069641 C121.97709656 314.92069641 121.97709656 315.58069641 121.97709656 316.26069641 C121.31709656 316.26069641 120.65709656 316.26069641 119.97709656 316.26069641 C119.97709656 316.92069641 119.97709656 317.58069641 119.97709656 318.26069641 C117.89897156 319.09663391 117.89897156 319.09663391 114.97709656 319.26069641 C112.5251234 317.55156241 110.43613053 315.86808772 108.22709656 313.88569641 C74.47463066 285.32011641 22.16230801 279.00029014 -20.42915344 281.77241516 C-21.16295227 281.81926453 -21.8967511 281.86611389 -22.65278625 281.91438293 C-24.44288987 282.02881545 -26.23290608 282.14461375 -28.02290344 282.26069641 C-28.02105986 281.28848459 -28.01921627 280.31627277 -28.01731682 279.31459999 C-27.97297205 255.68864274 -27.94007779 232.06269086 -27.9192791 208.43670082 C-27.90895439 197.01148121 -27.8948713 185.58628904 -27.87202454 174.16108704 C-27.85212716 164.20609182 -27.83919571 154.25111647 -27.83472645 144.29610193 C-27.83211286 139.02210492 -27.82594513 133.74816477 -27.81144333 128.47418594 C-27.79791705 123.51503088 -27.79367071 118.55595635 -27.79668808 113.59678459 C-27.79613569 111.77220536 -27.79212885 109.94762356 -27.78449249 108.12306023 C-27.77460864 105.64073173 -27.77691033 103.15871129 -27.78239441 100.67637634 C-27.77656873 99.9468128 -27.77074304 99.21724925 -27.76474082 98.46557772 C-27.67143642 94.4138754 -27.67143642 94.4138754 -30.02290344 91.26069641 C-32.60644563 91.09382193 -32.60644563 91.09382193 -35.02290344 91.26069641 Z " fill="#DB2A66" transform="translate(134.0229034423828,60.73930358886719)"/>
<path d="M0 0 C2.16182911 4.30741465 2.16182911 4.30741465 1.4519043 7.34570312 C1.07976807 8.14943359 0.70763184 8.95316406 0.32421875 9.78125 C-0.08739502 10.69543701 -0.49900879 11.60962402 -0.9230957 12.55151367 C-1.38159912 13.52451416 -1.84010254 14.49751465 -2.3125 15.5 C-3.25076594 17.56866319 -4.1882488 19.6376817 -5.125 21.70703125 C-5.60582031 22.75455566 -6.08664062 23.80208008 -6.58203125 24.88134766 C-8.7354696 29.61757725 -10.7762484 34.39999382 -12.8125 39.1875 C-13.1842334 40.05705322 -13.5559668 40.92660645 -13.93896484 41.82250977 C-14.96135263 44.21414225 -15.98135907 46.60676961 -17 49 C-17.2774707 49.65162109 -17.55494141 50.30324219 -17.84082031 50.97460938 C-20.0915488 56.27350032 -22.19502429 61.53158517 -24 67 C-22.43318481 66.97643433 -22.43318481 66.97643433 -20.8347168 66.95239258 C-16.96028348 66.89810303 -13.08588381 66.8636537 -9.21118164 66.83520508 C-7.5340408 66.82011616 -5.85693943 66.79964252 -4.17993164 66.77368164 C-1.76959496 66.73730189 0.64022019 66.72027514 3.05078125 66.70703125 C3.80087967 66.69154739 4.55097809 66.67606354 5.32380676 66.66011047 C10.48974677 66.65843943 10.48974677 66.65843943 12.99902344 68.33813477 C14 70 14 70 13.96484375 72.8828125 C12.81971282 76.58246626 11.35442208 78.22155725 8.5625 80.875 C7.35787109 82.04675781 7.35787109 82.04675781 6.12890625 83.2421875 C4 85 4 85 2 85 C2 85.66 2 86.32 2 87 C0.5390625 88.5078125 0.5390625 88.5078125 -1.375 90.125 C-2.00148438 90.66382813 -2.62796875 91.20265625 -3.2734375 91.7578125 C-5 93 -5 93 -7 93 C-7 93.66 -7 94.32 -7 95 C-7.66 95 -8.32 95 -9 95 C-9 95.66 -9 96.32 -9 97 C-10.69903023 98.51740976 -12.46072723 99.965128 -14.25 101.375 C-17.05313312 103.59229313 -19.73701197 105.7305752 -22.234375 108.2890625 C-24 110 -24 110 -26 110 C-26 110.66 -26 111.32 -26 112 C-26.66 112 -27.32 112 -28 112 C-28 112.66 -28 113.32 -28 114 C-28.66 114 -29.32 114 -30 114 C-30 114.66 -30 115.32 -30 116 C-31.4609375 117.5078125 -31.4609375 117.5078125 -33.375 119.125 C-34.00148438 119.66382813 -34.62796875 120.20265625 -35.2734375 120.7578125 C-37 122 -37 122 -39 122 C-39 122.66 -39 123.32 -39 124 C-40.64453125 125.69140625 -40.64453125 125.69140625 -42.8125 127.5625 C-43.52019531 128.18253906 -44.22789062 128.80257812 -44.95703125 129.44140625 C-47 131 -47 131 -50 132 C-50 132.66 -50 133.32 -50 134 C-51.64453125 135.69140625 -51.64453125 135.69140625 -53.8125 137.5625 C-54.52019531 138.18253906 -55.22789062 138.80257812 -55.95703125 139.44140625 C-58 141 -58 141 -61 142 C-61 142.66 -61 143.32 -61 144 C-66.47619048 149 -66.47619048 149 -69 149 C-69 149.66 -69 150.32 -69 151 C-69.66 151 -70.32 151 -71 151 C-71 151.66 -71 152.32 -71 153 C-73.1953125 155.1640625 -73.1953125 155.1640625 -76.125 157.625 C-77.07632813 158.44226563 -78.02765625 159.25953125 -79.0078125 160.1015625 C-82.36234543 162.2298954 -84.10745663 162.40427008 -88 162 C-89.49298713 159.11542147 -90.16499203 157.64303956 -89.34326172 154.44042969 C-88.91803223 153.52680664 -88.49280273 152.61318359 -88.0546875 151.671875 C-87.57870117 150.61806641 -87.10271484 149.56425781 -86.61230469 148.47851562 C-86.08024414 147.33060547 -85.54818359 146.18269531 -85 145 C-84.17402756 143.12325644 -83.36019298 141.24153722 -82.54693604 139.35925293 C-81.08660698 135.98353062 -79.60368364 132.61771202 -78.125 129.25 C-77.53245122 127.89848172 -76.940003 126.54691934 -76.34765625 125.1953125 C-75.16877492 122.50564828 -73.98935816 119.81621982 -72.80957031 117.12695312 C-69.86794873 110.42020124 -66.9343402 103.70993996 -64 97 C-65.66554932 97.01571045 -65.66554932 97.01571045 -67.36474609 97.03173828 C-71.47587879 97.06787949 -75.58699739 97.09087896 -79.69824219 97.10986328 C-81.47919067 97.11993431 -83.26012257 97.13359185 -85.04101562 97.15087891 C-87.59769783 97.17507913 -90.15416185 97.18647184 -92.7109375 97.1953125 C-93.50994476 97.20563507 -94.30895203 97.21595764 -95.13217163 97.22659302 C-97.0895722 97.22699226 -99.04643077 97.12241069 -101 97 C-103 95 -103 95 -103.125 91.875 C-103.08375 90.92625 -103.0425 89.9775 -103 89 C-102.34 89 -101.68 89 -101 89 C-100.66355469 88.15888672 -100.66355469 88.15888672 -100.3203125 87.30078125 C-98.60687657 84.31494172 -96.45183939 82.46645963 -93.875 80.1875 C-92.89144531 79.31480469 -91.90789062 78.44210938 -90.89453125 77.54296875 C-89.93933594 76.70378906 -88.98414063 75.86460937 -88 75 C-87.22011719 74.29488281 -86.44023437 73.58976562 -85.63671875 72.86328125 C-84.95222656 72.24839844 -84.26773438 71.63351563 -83.5625 71 C-82.96566406 70.46375 -82.36882812 69.9275 -81.75390625 69.375 C-79.92596242 67.94195718 -78.10785287 66.96358988 -76 66 C-76 65.34 -76 64.68 -76 64 C-74.390625 62.34375 -74.390625 62.34375 -72.25 60.5 C-71.55390625 59.8915625 -70.8578125 59.283125 -70.140625 58.65625 C-68.15539208 57.12023037 -66.28127955 56.0276034 -64 55 C-64 54.34 -64 53.68 -64 53 C-63.34 53 -62.68 53 -62 53 C-62 52.34 -62 51.68 -62 51 C-60.49609375 49.51953125 -60.49609375 49.51953125 -58.4375 47.8125 C-55.65156482 45.44837895 -52.99199422 43.05005091 -50.4375 40.4375 C-47.15223425 37.10702417 -43.80394982 33.74004829 -40 31 C-39.34 31 -38.68 31 -38 31 C-38 30.34 -38 29.68 -38 29 C-37.34 29 -36.68 29 -36 29 C-36 28.34 -36 27.68 -36 27 C-34.35546875 25.37890625 -34.35546875 25.37890625 -32.1875 23.5625 C-29.17536735 21.02660668 -29.17536735 21.02660668 -26.36328125 18.27734375 C-25 17 -25 17 -23 17 C-23 16.34 -23 15.68 -23 15 C-21.35546875 13.37890625 -21.35546875 13.37890625 -19.1875 11.5625 C-16.17536735 9.02660668 -16.17536735 9.02660668 -13.36328125 6.27734375 C-12 5 -12 5 -10 5 C-10 4.34 -10 3.68 -10 3 C-9.34 3 -8.68 3 -8 3 C-8 2.34 -8 1.68 -8 1 C-5.29120665 -0.35439668 -2.99066732 -0.06501451 0 0 Z " fill="#DC2B67" transform="translate(295,161)"/>
<path d="M0 0 C0 0.66 0 1.32 0 2 C-30.87989526 2.02283677 -61.75978829 2.04052214 -92.63969 2.05106533 C-96.28941574 2.05231596 -99.93914147 2.05361029 -103.58886719 2.05493164 C-104.31542947 2.05519395 -105.04199175 2.05545626 -105.79057106 2.05572652 C-117.53861199 2.06007199 -129.28664799 2.06795336 -141.034686 2.0771528 C-153.09875603 2.08652057 -165.16282349 2.09206222 -177.226897 2.09408849 C-183.99908069 2.09533475 -190.77125414 2.09831989 -197.54343414 2.10573006 C-203.92254543 2.11253642 -210.30164104 2.11460757 -216.68075562 2.11310768 C-219.0171492 2.11338194 -221.35354334 2.11535959 -223.68993378 2.11920547 C-246.37741796 2.15470718 -246.37741796 2.15470718 -256 1 C-256 0.67 -256 0.34 -256 0 C-224.68688156 -0.15042879 -193.37374396 -0.29553913 -162.0605672 -0.4332476 C-158.36191116 -0.44951816 -154.66325533 -0.46583396 -150.96459961 -0.48217773 C-150.22827855 -0.48543066 -149.4919575 -0.48868358 -148.73332369 -0.49203508 C-136.81834777 -0.544781 -124.90339189 -0.60119008 -112.98843939 -0.6589582 C-100.75828763 -0.71817279 -88.52812259 -0.77343855 -76.29793638 -0.82505554 C-68.75416236 -0.85701767 -61.21041543 -0.89204231 -53.66667431 -0.93101191 C-47.87750676 -0.96058736 -42.08832631 -0.98466285 -36.29912567 -1.00670624 C-33.92760083 -1.01659247 -31.55608261 -1.02825239 -29.18457603 -1.04183006 C-25.94283844 -1.06012306 -22.70113729 -1.07199073 -19.45936584 -1.08229065 C-18.05709286 -1.09249633 -18.05709286 -1.09249633 -16.62649113 -1.10290819 C-11.00355136 -1.11246211 -5.5783139 -0.71769602 0 0 Z " fill="#D12663" transform="translate(378,437)"/>
<path d="M0 0 C1.60339848 3.11771927 2.18974141 4.39011689 1.125 7.8125 C0.75375 8.534375 0.3825 9.25625 0 10 C-0.33 10 -0.66 10 -1 10 C-1.33 7.36 -1.66 4.72 -2 2 C-3.1446875 2.7425 -3.1446875 2.7425 -4.3125 3.5 C-7 5 -7 5 -10 5 C-10 4.34 -10 3.68 -10 3 C-9.34 3 -8.68 3 -8 3 C-8 2.34 -8 1.68 -8 1 C-5.29120665 -0.35439668 -2.99066732 -0.06501451 0 0 Z " fill="#DE2B7A" transform="translate(295,161)"/>
<path d="M0 0 C0.66 0 1.32 0 2 0 C0.6015209 3.4087928 -0.85006933 4.87393835 -4 6.75 C-5.051875 7.39195312 -5.051875 7.39195312 -6.125 8.046875 C-8 9 -8 9 -10 9 C-8.49906459 4.33042316 -5.1089292 3.16652631 -1 1 C-0.67 0.67 -0.34 0.34 0 0 Z " fill="#DD3471" transform="translate(415,421)"/>
<path d="M0 0 C0.66 0.99 1.32 1.98 2 3 C1.505 3.9075 1.01 4.815 0.5 5.75 C-1.27937212 9.00873038 -1.27937212 9.00873038 -1 13 C-2.32 13.33 -3.64 13.66 -5 14 C-3.45730076 9.27934033 -1.92205381 4.58335908 0 0 Z " fill="#DF2D7D" transform="translate(213,299)"/>
<path d="M0 0 C0.99 0.66 1.98 1.32 3 2 C-0.465 4.97 -0.465 4.97 -4 8 C-4 4 -4 4 -2 1.75 C-1.01 0.88375 -1.01 0.88375 0 0 Z " fill="#E03576" transform="translate(281,257)"/>
<path d="M0 0 C3.93673644 1.31224548 6.22719294 2.91910327 9 6 C8.01 6.495 8.01 6.495 7 7 C6.34 6.34 5.68 5.68 5 5 C4.34 5 3.68 5 3 5 C1.375 3.625 1.375 3.625 0 2 C0 1.34 0 0.68 0 0 Z " fill="#DD3078" transform="translate(232,353)"/>
<path d="M0 0 C4.95 0.99 4.95 0.99 10 2 C9.01 2.66 8.02 3.32 7 4 C3.3125 3.125 3.3125 3.125 0 2 C0 1.34 0 0.68 0 0 Z " fill="#E02682" transform="translate(186,333)"/>
<path d="M0 0 C0.99 0 1.98 0 3 0 C4.0326802 2.78823655 4.04509293 3.8677274 3.0625 6.75 C2.711875 7.4925 2.36125 8.235 2 9 C1.67 9 1.34 9 1 9 C0.67 6.03 0.34 3.06 0 0 Z " fill="#DF3772" transform="translate(293,162)"/>
<path d="M0 0 C2.31 0.33 4.62 0.66 7 1 C7 1.99 7 2.98 7 4 C5.68 4 4.36 4 3 4 C3 3.01 3 2.02 3 1 C2.01 0.67 1.02 0.34 0 0 Z " fill="#E13A73" transform="translate(163,352)"/>
<path d="" fill="#FF00FF" transform="translate(0,0)"/>
<path d="" fill="#FF00FF" transform="translate(0,0)"/>
<path d="" fill="#FF00FF" transform="translate(0,0)"/>
<path d="" fill="#FF00FF" transform="translate(0,0)"/>
<path d="" fill="#FF00FF" transform="translate(0,0)"/>
<path d="" fill="#FF00FF" transform="translate(0,0)"/>
<path d="" fill="#FF00FF" transform="translate(0,0)"/>
<path d="" fill="#FF00FF" transform="translate(0,0)"/>
<path d="" fill="#FF00FF" transform="translate(0,0)"/>
<path d="" fill="#FF00FF" transform="translate(0,0)"/>
<path d="" fill="#FF00FF" transform="translate(0,0)"/>
<path d="" fill="#FF00FF" transform="translate(0,0)"/>
<path d="" fill="#FF00FF" transform="translate(0,0)"/>
<path d="" fill="#FF00FF" transform="translate(0,0)"/>
<path d="" fill="#FF00FF" transform="translate(0,0)"/>
<path d="" fill="#FF00FF" transform="translate(0,0)"/>
<path d="" fill="#FF00FF" transform="translate(0,0)"/>
<path d="" fill="#FF00FF" transform="translate(0,0)"/>
<path d="" fill="#FF00FF" transform="translate(0,0)"/>
<path d="" fill="#FF00FF" transform="translate(0,0)"/>
<path d="" fill="#FF00FF" transform="translate(0,0)"/>
<path d="" fill="#FF00FF" transform="translate(0,0)"/>
<path d="" fill="#FF00FF" transform="translate(0,0)"/>
<path d="" fill="#FF00FF" transform="translate(0,0)"/>
<path d="" fill="#FF00FF" transform="translate(0,0)"/>
<path d="" fill="#FF00FF" transform="translate(0,0)"/>
<path d="" fill="#FF00FF" transform="translate(0,0)"/>
<path d="" fill="#FF00FF" transform="translate(0,0)"/>
<path d="" fill="#FF00FF" transform="translate(0,0)"/>
<path d="" fill="#FF00FF" transform="translate(0,0)"/>
<path d="" fill="#FF00FF" transform="translate(0,0)"/>
<path d="" fill="#FF00FF" transform="translate(0,0)"/>
<path d="" fill="#FF00FF" transform="translate(0,0)"/>
<path d="" fill="#FF00FF" transform="translate(0,0)"/>
<path d="" fill="#FF00FF" transform="translate(0,0)"/>
<path d="" fill="#FF00FF" transform="translate(0,0)"/>
<path d="" fill="#FF00FF" transform="translate(0,0)"/>
<path d="" fill="#FF00FF" transform="translate(0,0)"/>
<path d="" fill="#FF00FF" transform="translate(0,0)"/>
<path d="" fill="#FF00FF" transform="translate(0,0)"/>
<path d="" fill="#FF00FF" transform="translate(0,0)"/>
<path d="" fill="#FF00FF" transform="translate(0,0)"/>
<path d="" fill="#FF00FF" transform="translate(0,0)"/>
<path d="" fill="#FF00FF" transform="translate(0,0)"/>
<path d="" fill="#FF00FF" transform="translate(0,0)"/>
<path d="" fill="#FF00FF" transform="translate(0,0)"/>
<path d="" fill="#FF00FF" transform="translate(0,0)"/>
<path d="" fill="#FF00FF" transform="translate(0,0)"/>
<path d="" fill="#FF00FF" transform="translate(0,0)"/>
<path d="" fill="#FF00FF" transform="translate(0,0)"/>
<path d="" fill="#FF00FF" transform="translate(0,0)"/>
<path d="" fill="#FF00FF" transform="translate(0,0)"/>
<path d="" fill="#FF00FF" transform="translate(0,0)"/>
<path d="" fill="#FF00FF" transform="translate(0,0)"/>
<path d="" fill="#FF00FF" transform="translate(0,0)"/>
<path d="" fill="#FF00FF" transform="translate(0,0)"/>
<path d="" fill="#FF00FF" transform="translate(0,0)"/>
<path d="" fill="#FF00FF" transform="translate(0,0)"/>
<path d="" fill="#FF00FF" transform="translate(0,0)"/>
<path d="" fill="#FF00FF" transform="translate(0,0)"/>
<path d="" fill="#FF00FF" transform="translate(0,0)"/>
<path d="" fill="#FF00FF" transform="translate(0,0)"/>
<path d="" fill="#FF00FF" transform="translate(0,0)"/>
<path d="" fill="#FF00FF" transform="translate(0,0)"/>
<path d="" fill="#FF00FF" transform="translate(0,0)"/>
<path d="" fill="#FF00FF" transform="translate(0,0)"/>
</svg>
